<?xml version="1.0" encoding="UTF-8" standalone="no"?>
<svg
   id="Layer_1"
   version="1.1"
   viewBox="0 0 32 32"
   xml:space="preserve"
   sodipodi:docname="about_icon.svg"
   width="32"
   height="32"
   inkscape:version="1.1 (ce6663b3b7, 2021-05-25)"
   xmlns:inkscape="http://www.inkscape.org/namespaces/inkscape"
   xmlns:sodipodi="http://sodipodi.sourceforge.net/DTD/sodipodi-0.dtd"
   xmlns="http://www.w3.org/2000/svg"
   xmlns:svg="http://www.w3.org/2000/svg"><defs
     id="defs13" /><sodipodi:namedview
     id="namedview11"
     pagecolor="#505050"
     bordercolor="#eeeeee"
     borderopacity="1"
     inkscape:pageshadow="0"
     inkscape:pageopacity="0"
     inkscape:pagecheckerboard="0"
     showgrid="false"
     width="32px"
     inkscape:zoom="3.5703125"
     inkscape:cx="-28.568928"
     inkscape:cy="64.140044"
     inkscape:window-width="1366"
     inkscape:window-height="664"
     inkscape:window-x="0"
     inkscape:window-y="27"
     inkscape:window-maximized="1"
     inkscape:current-layer="Layer_1" /><g
     id="g8"
     transform="matrix(0.25396825,0,0,0.25396825,-0.253968,-0.253968)"><path
       d="M 64,1 C 29.3,1 1,29.3 1,64 1,98.7 29.3,127 64,127 98.7,127 127,98.7 127,64 127,29.3 98.7,1 64,1 Z m 0,118 C 33.7,119 9,94.3 9,64 9,33.7 33.7,9 64,9 c 30.3,0 55,24.7 55,55 0,30.3 -24.7,55 -55,55 z"
       id="path2" /><rect
       height="40"
       width="8"
       x="60"
       y="54.5"
       id="rect4" /><rect
       height="8"
       width="8"
       x="60"
       y="35.5"
       id="rect6" /></g></svg>
