<?xml version="1.0" encoding="UTF-8" standalone="no"?>
<svg
   height="28"
   id="Layer_1"
   version="1.1"
   viewBox="0 0 28 28"
   width="28"
   xml:space="preserve"
   sodipodi:docname="add_icon.svg"
   inkscape:version="1.1 (c68e22c387, 2021-05-23)"
   xmlns:inkscape="http://www.inkscape.org/namespaces/inkscape"
   xmlns:sodipodi="http://sodipodi.sourceforge.net/DTD/sodipodi-0.dtd"
   xmlns="http://www.w3.org/2000/svg"
   xmlns:svg="http://www.w3.org/2000/svg"><defs
     id="defs7" /><sodipodi:namedview
     id="namedview5"
     pagecolor="#505050"
     bordercolor="#eeeeee"
     borderopacity="1"
     inkscape:pageshadow="0"
     inkscape:pageopacity="0"
     inkscape:pagecheckerboard="0"
     showgrid="false"
     inkscape:zoom="26"
     inkscape:cx="15.980769"
     inkscape:cy="16.019231"
     inkscape:window-width="1920"
     inkscape:window-height="1017"
     inkscape:window-x="-8"
     inkscape:window-y="-8"
     inkscape:window-maximized="1"
     inkscape:current-layer="Layer_1" /><path
     d="M 25.142857,12.142857 H 15.857143 V 2.8571429 C 15.857143,1.832 15.025143,1 14,1 12.974857,1 12.142857,1.832 12.142857,2.8571429 V 12.142857 H 2.8571429 C 1.832,12.142857 1,12.974857 1,14 c 0,1.025143 0.832,1.857143 1.8571429,1.857143 h 9.2857141 v 9.285714 C 12.142857,26.168 12.974857,27 14,27 c 1.025143,0 1.857143,-0.832 1.857143,-1.857143 v -9.285714 h 9.285714 C 26.168,15.857143 27,15.025143 27,14 27,12.974857 26.168,12.142857 25.142857,12.142857 Z"
     id="path2"
     style="stroke-width:0.928571" /></svg>
