<?xml version="1.0" encoding="UTF-8" standalone="no"?>
<svg
   data-name="Layer 1"
   id="Layer_1"
   viewBox="0 0 32 32"
   version="1.1"
   sodipodi:docname="fuel_icon.svg"
   width="32"
   height="32"
   inkscape:version="1.1 (ce6663b3b7, 2021-05-25)"
   xmlns:inkscape="http://www.inkscape.org/namespaces/inkscape"
   xmlns:sodipodi="http://sodipodi.sourceforge.net/DTD/sodipodi-0.dtd"
   xmlns="http://www.w3.org/2000/svg"
   xmlns:svg="http://www.w3.org/2000/svg">
  <defs
     id="defs23" />
  <sodipodi:namedview
     id="namedview21"
     pagecolor="#505050"
     bordercolor="#eeeeee"
     borderopacity="1"
     inkscape:pageshadow="0"
     inkscape:pageopacity="0"
     inkscape:pagecheckerboard="0"
     showgrid="false"
     inkscape:zoom="3.5703125"
     inkscape:cx="-9.8030635"
     inkscape:cy="43.413567"
     inkscape:window-width="1366"
     inkscape:window-height="664"
     inkscape:window-x="0"
     inkscape:window-y="27"
     inkscape:window-maximized="1"
     inkscape:current-layer="Layer_1" />
  <title
     id="title2" />
  <path
     d="M 3.1792358e-7,21.046768 A 10.949331,10.949331 0 0 0 18.685846,28.786502 10.895891,10.895891 0 0 0 21.1827,17.183662 L 29.240497,9.1271544 A 1.9276901,1.9276901 0 0 0 31.433453,6.0231479 L 25.970377,0.55942766 a 1.9779104,1.9779104 0 0 0 -2.731216,0 1.9315532,1.9315532 0 0 0 -0.371503,2.19295674 L 14.808575,10.809536 A 10.941605,10.941605 0 0 0 3.1792358e-7,21.046768 Z M 24.149566,1.4698331 a 0.64385107,0.64385107 0 0 1 0.910405,0 l 5.463077,5.4637201 a 0.64385107,0.64385107 0 0 1 -0.910406,0.9104062 l -5.463076,-5.463077 a 0.64385107,0.64385107 0 0 1 0,-0.9110493 z M 7.9245194,11.877685 a 9.5933809,9.5933809 0 0 1 3.0029206,-0.488683 9.6963971,9.6963971 0 0 1 3.785845,0.772622 0.64385107,0.64385107 0 0 0 0.708236,-0.137785 l 8.272198,-8.2773486 4.553315,4.552027 -8.27413,8.2747736 a 0.64385107,0.64385107 0 0 0 -0.137784,0.708236 9.6133403,9.6133403 0 0 1 -0.869843,9.142685 c -0.288445,-0.395968 -0.227924,-0.872418 -0.09851,-1.622505 0.151306,-0.881432 0.339954,-1.977266 -0.579465,-2.897329 -0.91942,-0.920063 -2.01461,-0.730128 -2.89733,-0.579466 -0.84087,0.14551 -1.339854,0.206676 -1.766084,-0.219553 -0.426229,-0.42623 -0.365063,-0.92457 -0.220197,-1.767372 0.150662,-0.881431 0.338666,-1.977266 -0.579466,-2.897329 -0.918131,-0.920063 -2.014609,-0.731416 -2.8973286,-0.579466 -0.842802,0.144866 -1.341142,0.205389 -1.768016,-0.221485 -0.426872,-0.426873 -0.36635,-0.925214 -0.222128,-1.768659 a 4.0060413,4.0060413 0 0 0 -0.01352,-1.993363 z m -1.1930561,0.486752 a 3.1548702,3.1548702 0 0 1 -0.059234,1.287702 c -0.1506612,0.881432 -0.3386657,1.977911 0.5794659,2.897329 0.9181312,0.91942 2.0152532,0.731416 2.8973298,0.579467 0.844088,-0.144867 1.342429,-0.205389 1.768658,0.221484 0.42623,0.426874 0.365708,0.924571 0.220841,1.768016 -0.150661,0.880787 -0.338665,1.977266 0.579466,2.897329 0.918132,0.920063 2.01461,0.730128 2.897329,0.579466 0.842802,-0.143578 1.340499,-0.205389 1.766728,0.220197 0.426229,0.425586 0.36442,0.923283 0.218909,1.76544 -0.150017,0.875637 -0.335446,1.963745 0.564658,2.878658 -0.12877,0.141004 -0.251746,0.281363 -0.38631,0.415927 A 9.657766,9.657766 0 1 1 6.7301756,12.364437 Z"
     id="path4"
     style="stroke-width:0.643851" />
</svg>
