<?xml version="1.0" encoding="UTF-8" standalone="no"?>
<svg
   enable-background="new 0 0 48 48"
   height="32"
   version="1.1"
   viewBox="0 0 32 32"
   width="32"
   xml:space="preserve"
   id="svg11"
   sodipodi:docname="2324258_cigarette_nicotine_smoke_smoking_tobacco_icon.svg"
   inkscape:version="1.1 (ce6663b3b7, 2021-05-25)"
   xmlns:inkscape="http://www.inkscape.org/namespaces/inkscape"
   xmlns:sodipodi="http://sodipodi.sourceforge.net/DTD/sodipodi-0.dtd"
   xmlns="http://www.w3.org/2000/svg"
   xmlns:svg="http://www.w3.org/2000/svg"><defs
     id="defs15" /><sodipodi:namedview
     id="namedview13"
     pagecolor="#505050"
     bordercolor="#eeeeee"
     borderopacity="1"
     inkscape:pageshadow="0"
     inkscape:pageopacity="0"
     inkscape:pagecheckerboard="0"
     showgrid="false"
     inkscape:zoom="4.7604167"
     inkscape:cx="2.1006565"
     inkscape:cy="14.49453"
     inkscape:window-width="1366"
     inkscape:window-height="664"
     inkscape:window-x="0"
     inkscape:window-y="27"
     inkscape:window-maximized="1"
     inkscape:current-layer="svg11" /><g
     id="g927"
     transform="matrix(1.449341,0,0,1.449341,-38.23579,-8.9033017)"><path
       d="m 28.066,16.928 -0.01,0.013 1.601,1.486 4.793,4.792 c 1.298,1.085 2.143,2.697 2.143,4.521 0,0.165 -0.035,0.32 -0.048,0.482 l 4.177,-4.021 -0.011,-0.007 c 0.735,-0.667 1.213,-1.609 1.213,-2.68 0,-0.779 -0.251,-1.493 -0.668,-2.085 h 10e-4 c 0,-0.002 -0.005,-0.007 -0.008,-0.01 -0.017,-0.027 -0.038,-0.05 -0.058,-0.075 -0.102,-0.135 -0.31,-0.395 -0.446,-0.564 l 0.001,-0.027 -6.449,-6.45 C 34.083,12.118 33.886,11.92 33.701,11.708 l -0.133,-0.133 0.014,-0.014 c -0.828,-1.017 -1.345,-2.298 -1.345,-3.712 0,-0.112 0.027,-0.214 0.033,-0.324 L 32.2,7.458 30.888,8.77 27.957,11.652 c 0,0 0.014,0.01 0.016,0.012 -0.651,0.672 -1.068,1.568 -1.068,2.578 0,1.06 0.453,2.002 1.161,2.686 z"
       fill="#241f20"
       id="path923" /><path
       d="m 39.088,12.189 -0.007,0.01 1.022,0.948 3.062,3.061 c 0.829,0.693 1.368,1.723 1.368,2.887 0,0.105 -0.022,0.204 -0.031,0.308 l 2.668,-2.566 -0.008,-0.005 c 0.471,-0.425 0.775,-1.027 0.775,-1.711 0,-0.499 -0.16,-0.955 -0.427,-1.332 l 0.001,-10e-4 c 0,0 -0.004,-0.005 -0.005,-0.006 -0.011,-0.016 -0.024,-0.031 -0.037,-0.048 -0.065,-0.086 -0.198,-0.252 -0.285,-0.361 L 47.185,13.356 43.066,9.237 C 42.929,9.119 42.804,8.993 42.686,8.858 L 42.601,8.772 42.61,8.765 C 42.081,8.114 41.751,7.296 41.751,6.393 c 0,-0.07 0.018,-0.137 0.021,-0.206 L 41.727,6.143 40.89,6.978 39.019,8.82 c 0,0 0.009,0.005 0.01,0.006 -0.416,0.431 -0.683,1.003 -0.683,1.647 0,0.678 0.29,1.28 0.742,1.716 z"
       fill="#241f20"
       id="path925" /></g></svg>
